<?xml version="1.0" encoding="utf-8"?>
<!-- Generator: Adobe Illustrator 21.0.2, SVG Export Plug-In . SVG Version: 6.00 Build 0)  -->
<svg version="1.1" id="Capa_1" xmlns="http://www.w3.org/2000/svg" xmlns:xlink="http://www.w3.org/1999/xlink" x="0px" y="0px"
	 viewBox="0 0 245 70" style="enable-background:new 0 0 245 70;" xml:space="preserve">
<style type="text/css">
	.st0{fill:#FFFFFF;}
</style>
<g>
	<path class="st0" d="M72.1,30.5c-3.7,5.2-8.7,10-13.1,10c-1.8,0-2.6-1-2.6-3.2c0-1.3,0.3-3.1,0.5-4c4.1-2.1,8.3-4.4,12-8.2
		c2.1-2.2,3.5-4.4,3.5-6.8c0-2.2-1.3-3.3-4-3.3c-3.9,0-8.7,2.6-11.7,5.9c-4,4.4-7.1,10.6-7.2,16.1c0,3.9,1.8,7,6.9,6.9
		c5.4-0.2,10.7-4.3,13.4-7.3c-0.3,1.3-0.6,2.5-0.6,3.5c0,3.5,1.7,5.9,5.1,7l0.7-0.3c-0.3-0.9-0.4-1.9-0.3-3
		c0.2-3.4,1.6-7.2,3.5-12.2C82,22,87.5,11.2,90,4.8l-5.8,1.1c-0.9,0.2-1.4,0.9-1.7,1.5c-2.8,5.9-5.6,12.2-9.2,20.4
		C72.9,28.6,72.5,29.5,72.1,30.5L72.1,30.5z M66.6,17.8c0.9,0,1.2,0.6,1.2,1.4c0,3.7-4.6,8.4-10.4,11.9C58.9,25.4,63,17.8,66.6,17.8
		L66.6,17.8z"/>
	<path class="st0" d="M164.8,39.9c0,2.6,1.6,4.2,4.8,4.2c3.3-0.1,6.7-2,9.4-4.7c0.5,2.8,2.5,4.9,6.7,4.7c4.3-0.1,8.5-2.9,11.4-6
		c0,0.3,0,0.6,0,0.9c0,2.9,1.5,5,4.9,5c3.6,0,7.7-2.7,10.9-7.3l0.1,0.1c-0.3,1.1-0.6,2.9-0.7,4.2c-0.1,3.5,2,5.5,4.9,6.1l0.7-0.3
		c-1-2.5,0.4-8.8,1-10.9c2.1-6.9,5.5-14.8,7.5-18.9c-0.9-0.7-3-1.3-5.2-1.4c-7.4-0.3-14.9,2.8-20.4,12.5c-0.9,1.7-2,3.6-2.7,5.7
		c-0.8,1-1.6,1.9-1.9,2.2c-2,1.9-4.8,4.3-7.6,4.4c-1.6,0-2.5-1.1-2.5-3.1c0.1-7.8,6.9-19.5,11.5-19.5c1.3,0,1.8,0.6,1.8,1.7
		c0,1.3-0.9,3-2.1,4.2l0.5,0.5c3.1-1.2,6-3.4,6-5.6c0-2.6-3-3.1-5.7-3.1c-3.6,0-8.1,1.8-11.7,5.8c-4.5,4.9-6.8,10.9-7.3,15.1
		c-2.1,2.4-4.4,4.1-5.9,4.1c-0.9,0.1-1.5-0.4-1.5-1.3c0-0.8,0.4-2.4,1.2-4.6c2-5,4.9-11.2,8.4-18.5c0,0-5.4,0.9-6.2,1.1
		c-0.8,0.2-1.5,0.7-1.8,1.5c-2.3,4.9-5.1,10.6-6.8,14.8C165.5,35.8,164.8,38.4,164.8,39.9L164.8,39.9z M215.5,18.8
		c1.8-0.8,3.2-0.9,4.4-0.6c-0.4,0.9-2.5,5.1-4.1,8.9c-2.6,5.9-6.4,11.9-10,12.8c-1.3,0.3-2-0.2-1.9-1.4
		C203.9,33.1,209.7,21.5,215.5,18.8L215.5,18.8z"/>
	<path class="st0" d="M88.8,20.9c-4,4.4-7.2,10.6-7.2,16.1c0,3.8,2,7,7.1,6.9c5.5-0.2,10.6-3.4,14.9-8c-1.1,2.9-2,5.5-2.6,6.8
		c-1.6,4.1-2.8,7.3-5.3,9.2l0.3,0.5c7.3,0.4,10-4.7,13-13.1c3-8.4,5.6-15.7,7.5-20.7c3.2,0,7.7,0.1,10.2-0.5
		c-6.6,2.9-12.2,13.5-11.6,20.4c0.3,3.1,2.1,5.2,6,5.2c7.6,0,14-9,16.4-14.9c1.4-3.4,2.3-6.3,2.5-9.2c1.8-0.3,3.5-0.6,4.4-0.8
		c1.7-0.2,1.4,1.6,0.8,3c-3.1,8.6-8.5,21.3-8.5,21.4l5.9,0c2.5-5.3,4.1-8.8,6.2-12.4c2.4-4.3,8-11.3,10.2-11.4c0.8,0,1,0.5,0.8,1.3
		c-0.4,2.9-7.5,14-7.4,19.5c0.1,3.6,2,5.7,5.3,6.5l0.7-0.4c-0.4-0.8-0.5-1.8-0.5-2.9c-0.1-3.7,2.9-10,4.1-12.6
		c1.8-3.9,5.1-9.6,4.9-12.7c-0.1-1.5-1.3-2.9-3.9-2.9c-4.8,0-9.7,4.7-13.7,11l-0.1-0.1c1.6-3.6,2.9-7,2.8-8.7
		c-0.1-1.5-0.9-2.1-2.7-2.1c-1.3,0-3,0.5-4.7,1c-2.4,0.6-4.9,1.3-7.7,1.9c-1.7,0.2-2.3,0.5-2.2,1.1c0.3,9.6-6.2,21-10.5,21
		c-1.9,0-2.3-1.4-2.3-3.3c0-6.7,5.5-17.8,10.8-19.6c0.5-0.2,0.9-0.2,1.2-0.3l0.7-1.8c-1.1,0.2-3.8,0.3-5.2,0.3c-1.4,0-11.7,0-11.7,0
		c3.1-7.4,7.5-12.2,13.8-12.4c4-0.2,6.6,1.3,6.8,3.6c0.2,1.9-0.4,3.5-1.9,5.1l0.4,0.4c3.5-1.7,5.9-4.4,5.9-6.3c0-3-3.5-4.8-9.2-4.7
		c-7.2,0.1-16.2,1.7-22.4,14.6c-1.8,0.3-3.5,1-5,2.5l0.3,0.6c1-0.4,2.2-0.5,3.5-0.4c-0.9,2.1-2.6,6.7-4.3,11.4
		c-5.2,6.9-10.5,10.2-14.4,10.3c-2.1,0-3-1.1-3-3.2c0-1.3,0.3-3.1,0.5-4c4.1-2.1,8.3-4.4,12-8.2c2.1-2.2,3.5-4.4,3.5-6.8
		c0-2.2-1.3-3.3-4-3.3C96.6,15,91.9,17.6,88.8,20.9L88.8,20.9z M98.8,17.8c0.9,0,1.2,0.6,1.2,1.4c0,3.7-4.6,8.4-10.4,11.9
		C91,25.4,95.1,17.8,98.8,17.8L98.8,17.8z"/>
	<path class="st0" d="M181.4,11.2c1.7,0,3.3-1.5,3.7-3.4c0.4-1.8-0.7-3.3-2.3-3.3c-1.7,0-3.3,1.6-3.7,3.4
		C178.7,9.8,179.8,11.3,181.4,11.2L181.4,11.2z"/>
	<path class="st0" d="M122.1,64.1C62,64.1,1,64.8,1,65.7c0,0.9,61,1.6,121.1,1.6c60,0,121-0.7,121-1.6
		C243.1,64.8,182.1,64.1,122.1,64.1L122.1,64.1z"/>
	<path class="st0" d="M25.1,21.2l0.4-0.3c-0.5-0.9-0.7-2.5-0.7-3.4c0.2-7.8,8.5-12.3,21.4-12.3c0,0,3.2,0,7.1,0
		c-4.2,2.4-7.6,5.6-10.3,11.7c-1.1,2.6-6.6,16.6-8.8,22.9c-2.8,7.5-4.5,10.9-6.7,12.1l0.4,0.7C33.9,53,37.6,49.8,40,44
		c2.3-5.5,5.2-14.3,6.7-18.2c4.8-12.5,6.9-17.9,10.6-20.5c5.3,0,10.4,0,10.4,0c5.7-0.2,8.1-1.6,9.8-3.8L77.2,1
		c-1.4,0.7-4.5,0.9-7.1,0.9H44.4C30,1.9,21.2,6.6,19.7,13.7C19,17.1,20.9,20.8,25.1,21.2L25.1,21.2z"/>
</g>
</svg>
